<?xml version="1.0" encoding="UTF-8"?>
<svg width="465px" height="340px" viewBox="0 0 465 340" version="1.1" xmlns="http://www.w3.org/2000/svg" xmlns:xlink="http://www.w3.org/1999/xlink">
    <!-- Generator: sketchtool 52.5 (67469) - http://www.bohemiancoding.com/sketch -->
    <title>C314CB7A-CE70-4A59-B808-7E13B26659B0</title>
    <desc>Created with sketchtool.</desc>
    <defs>
        <path d="M56.176686,22.3449397 C-39.7827326,91.3416127 0.00901162791,233.096381 91.9672674,267.378337 C183.923721,301.662095 302.235581,282.294197 335.529942,218.609676 C392.420349,109.782679 285.336977,131.601092 243.638372,106.389105 C195.285581,77.1560381 166.790814,0.7952 111.347674,0.7952 C95.5178488,0.7952 77.4909884,7.01975873 56.176686,22.3449397" id="path-1"></path>
        <polygon id="path-3" points="0.369296512 0.108190476 63.3659826 0.108190476 63.3659826 51.9292648 0.369296512 51.9292648"></polygon>
        <polygon id="path-5" points="0 338.996825 464.358372 338.996825 464.358372 0.108190476 0 0.108190476"></polygon>
    </defs>
    <g id="Page-1" stroke="none" stroke-width="1" fill="none" fill-rule="evenodd">
        <g id="Desktop-1" transform="translate(-90.000000, -229.000000)">
            <g id="workspace-1" transform="translate(73.000000, 144.000000)">
                <g id="Group-90" transform="translate(17.000000, 85.000000)">
                    <path d="M315.731756,135.335964 C253.573151,97.7560025 224.231291,-17.7066768 128.27007,51.2899962 C32.3106512,120.286669 72.1023953,262.043241 164.060651,296.323393 C256.017105,330.607152 374.328965,311.241057 407.621523,247.55293 C464.513733,138.727736 357.43036,160.546149 315.731756,135.335964" id="Fill-1" fill="#BBE0FD"></path>
                    <g id="Group-5" transform="translate(72.093023, 28.945778)">
                        <mask id="mask-2" fill="white">
                            <use xlink:href="#path-1"></use>
                        </mask>
                        <g id="Clip-4"></g>
                        <path d="M-8.51526744,239.973148 C-8.51526744,239.973148 44.4947326,186.795726 133.030372,212.027548 C221.566012,237.261173 273.692872,215.628488 262.698686,81.9122717 C262.698686,81.9122717 387.138453,99.2840559 371.184267,187.745999 C351.821884,295.103408 101.900605,336.071535 -8.51526744,239.973148" id="Fill-3" fill="#E2EBF2" mask="url(#mask-2)"></path>
                    </g>
                    <g id="Group-89" transform="translate(0.000000, 0.094984)">
                        <path d="M179.672035,50.3130794 L179.672035,102.172381 C179.672035,106.644254 176.043953,110.257816 171.574186,110.257816 L61.0447674,110.257816 C56.5731977,110.257816 52.9469186,106.644254 52.9469186,102.172381 L52.9469186,50.3130794 C52.9469186,45.8412063 56.5731977,42.2258413 61.0447674,42.2258413 L171.574186,42.2258413 C176.043953,42.2258413 179.672035,45.8412063 179.672035,50.3130794" id="Fill-6" fill="#EBEBEB"></path>
                        <path d="M179.672035,50.3130794 L179.672035,54.801181 L52.9469186,54.801181 L52.9469186,50.3130794 C52.9469186,45.8412063 56.5731977,42.2258413 61.0447674,42.2258413 L171.574186,42.2258413 C176.043953,42.2258413 179.672035,45.8412063 179.672035,50.3130794" id="Fill-8" fill="#4CABF6"></path>
                        <path d="M61.7869651,49.1121651 C61.7869651,50.051619 61.0263837,50.8107556 60.0891744,50.8107556 C59.1519651,50.8107556 58.3913837,50.051619 58.3913837,49.1121651 C58.3913837,48.1727111 59.1519651,47.4135746 60.0891744,47.4135746 C61.0263837,47.4135746 61.7869651,48.1727111 61.7869651,49.1121651" id="Fill-10" fill="#FFFFFF"></path>
                        <path d="M68.5817326,49.1121651 C68.5817326,50.051619 67.8229535,50.8107556 66.8839419,50.8107556 C65.9467326,50.8107556 65.1861512,50.051619 65.1861512,49.1121651 C65.1861512,48.1727111 65.9467326,47.4135746 66.8839419,47.4135746 C67.8229535,47.4135746 68.5817326,48.1727111 68.5817326,49.1121651" id="Fill-12" fill="#FFFFFF"></path>
                        <path d="M75.3792035,49.1121651 C75.3792035,50.051619 74.6186221,50.8107556 73.6796105,50.8107556 C72.7424012,50.8107556 71.9818198,50.051619 71.9818198,49.1121651 C71.9818198,48.1727111 72.7424012,47.4135746 73.6796105,47.4135746 C74.6186221,47.4135746 75.3792035,48.1727111 75.3792035,49.1121651" id="Fill-14" fill="#FFFFFF"></path>
                        <path d="M95.6157151,85.9293841 L70.1704826,85.9293841 C69.3396105,85.9293841 68.667343,85.2549968 68.667343,84.4255365 L68.667343,63.8224635 C68.667343,62.9912 69.3396105,62.3186159 70.1704826,62.3186159 L95.6157151,62.3186159 C96.4465872,62.3186159 97.1188547,62.9912 97.1188547,63.8224635 L97.1188547,84.4255365 C97.1188547,85.2549968 96.4465872,85.9293841 95.6157151,85.9293841" id="Fill-16" fill="#FFFFFF"></path>
                        <path d="M162.148564,96.9756317 L68.67275,96.9756317 C67.6850756,96.9756317 66.884843,96.1750222 66.884843,95.1868825 C66.884843,94.1969397 67.6850756,93.3963302 68.67275,93.3963302 L162.148564,93.3963302 C163.136238,93.3963302 163.936471,94.1969397 163.936471,95.1868825 C163.936471,96.1750222 163.136238,96.9756317 162.148564,96.9756317" id="Fill-18" fill="#FFFFFF"></path>
                        <path d="M162.148564,83.4649854 L105.43839,83.4649854 C104.450715,83.4649854 103.650483,82.6643759 103.650483,81.674433 C103.650483,80.6862933 104.450715,79.8856838 105.43839,79.8856838 L162.148564,79.8856838 C163.136238,79.8856838 163.936471,80.6862933 163.936471,81.674433 C163.936471,82.6643759 163.136238,83.4649854 162.148564,83.4649854" id="Fill-20" fill="#FFFFFF"></path>
                        <path d="M140.563012,70.7697346 L105.439291,70.7697346 C104.451616,70.7697346 103.651384,69.9691251 103.651384,68.9809854 C103.651384,67.9910425 104.451616,67.190433 105.439291,67.190433 L140.563012,67.190433 C141.550686,67.190433 142.350919,67.9910425 142.350919,68.9809854 C142.350919,69.9691251 141.550686,70.7697346 140.563012,70.7697346" id="Fill-22" fill="#FFFFFF"></path>
                        <path d="M0.809604651,149.714883 C0.809604651,149.714883 2.87506977,147.340102 4.14030233,146.250984 C6.41844186,144.28913 9.03361628,140.823429 17.3928023,143.376724 C18.0416395,143.576876 18.6706512,143.84014 19.2960581,144.105206 C20.0332093,144.417156 22.3167558,144.424368 24.6543721,142.568902 C28.3689651,139.617105 29.8216395,137.390184 34.911407,137.31986 C40.8338488,137.240521 41.7638488,144.626324 46.3669884,146.517854 C49.2957674,147.720571 57.0223372,148.916076 58.621,149.449816 L0.809604651,149.714883 Z" id="Stroke-24" stroke="#EBEBEB" stroke-width="1.6182" stroke-linecap="round" stroke-linejoin="round"></path>
                        <path d="M315.091029,43.633219 C315.091029,43.633219 319.149866,38.9611937 321.638878,36.8208254 C326.119459,32.9656381 331.25789,26.1514413 347.693297,31.1732825 C348.969343,31.5645714 350.205738,32.0820825 351.436727,32.6032 C352.885797,33.2180825 357.373587,33.2325079 361.969517,29.5828825 C369.272541,23.7802667 372.129227,19.4021587 382.135738,19.2651175 C393.778762,19.1082413 395.609924,33.6292063 404.657599,37.3455492 C410.417831,39.7095111 425.609634,42.0608508 428.751087,43.1084952 L315.091029,43.633219 Z" id="Fill-26" fill="#EBEBEB"></path>
                        <path d="M225.26168,87.0221079 L224.421797,84.616673 L223.581913,87.0221079 C222.875401,89.0506794 221.192029,90.7636952 218.915692,91.7752762 C221.192029,92.7868571 222.875401,94.4980698 223.581913,96.5284444 L224.421797,98.9338794 L225.26168,96.5284444 C225.969994,94.4980698 227.651564,92.7868571 229.927901,91.7752762 C227.651564,90.7636952 225.969994,89.0506794 225.26168,87.0221079" id="Fill-28" fill="#FFFFFF"></path>
                        <path d="M149.379267,224.596757 L148.539384,222.189519 L147.6995,224.596757 C146.991186,226.625328 145.309616,228.336541 143.033279,229.349925 C145.309616,230.359703 146.991186,232.072719 147.6995,234.10129 L148.539384,236.508528 L149.379267,234.10129 C150.087581,232.072719 151.767349,230.359703 154.045488,229.349925 C151.767349,228.336541 150.087581,226.625328 149.379267,224.596757" id="Fill-30" fill="#FFFFFF"></path>
                        <path d="M376.877093,210.101036 L376.321977,208.514243 L375.768663,210.101036 C375.30186,211.438992 374.19343,212.569582 372.690291,213.236757 C374.19343,213.903931 375.30186,215.034522 375.768663,216.374281 L376.321977,217.961074 L376.877093,216.374281 C377.343895,215.034522 378.452326,213.903931 379.955465,213.236757 C378.452326,212.569582 377.343895,211.438992 376.877093,210.101036" id="Fill-32" fill="#FFFFFF"></path>
                        <path d="M112.702663,130.239154 L112.147547,128.652361 L111.594233,130.239154 C111.12743,131.57711 110.017198,132.7077 108.51586,133.374875 C110.017198,134.04205 111.12743,135.17264 111.594233,136.510596 L112.147547,138.099192 L112.702663,136.510596 C113.169465,135.17264 114.279698,134.04205 115.781035,133.374875 C114.279698,132.7077 113.169465,131.57711 112.702663,130.239154" id="Fill-34" fill="#FFFFFF"></path>
                        <g id="Group-38" transform="translate(234.302326, 0.000000)">
                            <mask id="mask-4" fill="white">
                                <use xlink:href="#path-3"></use>
                            </mask>
                            <g id="Clip-37"></g>
                            <path d="M58.1698779,0.107829841 L5.56540116,0.107829841 C2.69609884,0.107829841 0.369296512,2.42671238 0.369296512,5.29556317 L0.369296512,33.7298235 C0.369296512,36.6004775 2.69609884,38.91936 5.56540116,38.91936 L8.39685465,38.91936 L8.39685465,51.9292648 L21.4006337,38.91936 L58.1698779,38.91936 C61.0391802,38.91936 63.3659826,36.6004775 63.3659826,33.7298235 L63.3659826,5.29556317 C63.3659826,2.42671238 61.0391802,0.107829841 58.1698779,0.107829841" id="Fill-36" fill="#4CABF6" mask="url(#mask-4)"></path>
                        </g>
                        <path d="M247.250413,27.9602057 L259.661227,27.9602057 C260.618262,27.9602057 261.395064,28.737374 261.395064,29.6948597 C261.395064,30.6523454 260.618262,31.4277105 259.661227,31.4277105 L247.250413,31.4277105 C246.293378,31.4277105 245.516576,30.6523454 245.516576,29.6948597 C245.516576,28.737374 246.293378,27.9602057 247.250413,27.9602057" id="Fill-39" fill="#FFFFFF"></path>
                        <path d="M247.250413,19.274494 L270.11832,19.274494 C271.077157,19.274494 271.852157,20.0516622 271.852157,21.0091479 C271.852157,21.9666337 271.077157,22.7419987 270.11832,22.7419987 L247.250413,22.7419987 C246.293378,22.7419987 245.516576,21.9666337 245.516576,21.0091479 C245.516576,20.0516622 246.293378,19.274494 247.250413,19.274494" id="Fill-41" fill="#FFFFFF"></path>
                        <path d="M247.250413,10.8325714 L286.564541,10.8325714 C287.523378,10.8325714 288.298378,11.6097397 288.298378,12.5654222 C288.298378,13.5247111 287.523378,14.3000762 286.564541,14.3000762 L247.250413,14.3000762 C246.293378,14.3000762 245.516576,13.5247111 245.516576,12.5654222 C245.516576,11.6097397 246.293378,10.8325714 247.250413,10.8325714" id="Fill-43" fill="#FFFFFF"></path>
                        <path d="M259.861465,244.08655 L320.776465,244.08655 C332.999837,244.08655 343.264081,234.883147 344.597802,222.72434 L353.382337,131.24749 L292.499779,131.24749 L291.257977,184.28787 L259.861465,244.08655 Z" id="Fill-45" fill="#3388CB"></path>
                        <path d="M259.861465,243.100574 C275.511058,242.473069 291.158849,242.197183 306.808442,241.944739 L318.545186,241.852777 C319.493209,241.831139 320.567395,241.869006 321.412686,241.796879 C322.301233,241.769831 323.18257,241.697704 324.053093,241.535418 C325.804953,241.275761 327.509953,240.760053 329.130244,240.064028 C335.667279,237.325006 340.59664,231.210441 341.962802,224.284447 C342.274605,222.648968 342.431407,220.600561 342.624256,218.669361 L343.197395,212.827076 L344.341872,201.142504 C345.077221,193.350987 345.931523,185.572091 346.755186,177.787787 C348.384488,162.22098 350.103907,146.659583 351.990942,131.114415 C352.084663,130.348066 352.78036,129.801704 353.546349,129.893666 C354.288907,129.983825 354.824198,130.643787 354.773733,131.381285 C353.665302,147.005793 352.39286,162.614072 351.0285,178.215139 C350.356233,186.015672 349.714605,193.819812 348.952221,201.61133 L347.851,213.304917 L347.303093,219.150809 C347.104837,221.112663 346.9985,222.973539 346.598384,225.191444 C344.981698,233.644726 338.976349,241.200028 330.928965,244.35378 C328.944605,245.168815 326.864721,245.760257 324.739779,246.043355 C323.680012,246.218263 322.613035,246.292193 321.544256,246.308422 C320.435826,246.367926 319.550884,246.312028 318.545186,246.319241 L306.808442,246.227279 C291.158849,245.976637 275.511058,245.698949 259.861465,245.073247 C259.317163,245.049806 258.895419,244.591799 258.917047,244.045437 C258.936872,243.52973 259.355012,243.122212 259.861465,243.100574" id="Fill-47" fill="#393F5C"></path>
                        <path d="M294.69339,245.813991 L294.69339,310.418131" id="Stroke-49" stroke="#393F5C" stroke-width="4.4928"></path>
                        <mask id="mask-6" fill="white">
                            <use xlink:href="#path-5"></use>
                        </mask>
                        <g id="Clip-52"></g>
                        <polygon id="Fill-51" fill="#393F5C" mask="url(#mask-6)" points="109.833721 188.345194 306.193488 188.345194 306.193488 185.290616 109.833721 185.290616"></polygon>
                        <polygon id="Fill-53" fill="#F1BD9A" mask="url(#mask-6)" points="283.036488 322.614443 285.121779 330.088602 274.974686 333.164818 271.802593 323.93617"></polygon>
                        <polygon id="Fill-54" fill="#F1BD9A" mask="url(#mask-6)" points="221.780308 317.189051 221.780308 323.190017 230.763099 323.190017 231.765192 317.189051"></polygon>
                        <path d="M290.777297,143.580663 L277.20939,177.087253 L276.908401,177.831964 C276.100959,179.826276 274.167064,181.030796 272.14125,181.02178 L233.506599,180.744091 C231.94218,180.733272 230.685959,179.456625 230.696773,177.893272 C230.707587,176.475977 231.756541,175.311126 233.117297,175.112777 L271.348227,169.528345 L266.280087,173.461069 L275.414273,138.483088 C276.546134,134.148257 280.978052,131.551685 285.310843,132.682276 C289.643634,133.814669 292.240785,138.248676 291.108924,142.58531 C291.022413,142.911685 290.899855,143.274123 290.777297,143.580663" id="Fill-55" fill="#E7AE88" mask="url(#mask-6)"></path>
                        <path d="M237.703674,174.44434 L224.510651,174.172061 C221.248442,174.172061 218.602628,177.116645 218.602628,180.751845 L237.871291,180.751845 L237.703674,174.44434 Z" id="Fill-56" fill="#E7AE88" mask="url(#mask-6)"></path>
                        <path d="M269.415052,147.659083 L290.541913,152.819769 L294.007785,133.983807 C294.937785,128.920493 291.416041,124.10782 286.234355,123.359502 C281.874529,122.730194 277.666099,125.20415 276.170169,129.275718 L269.415052,147.659083 Z" id="Fill-57" fill="#3388CB" mask="url(#mask-6)"></path>
                        <path d="M291.257797,184.28769 L226.170413,217.334471 C220.129017,220.399868 216.479308,226.759665 216.87582,233.525176 L221.779948,317.188871 L231.764831,317.188871 L245.239017,227.672071 L295.913203,192.073798 L291.257797,184.28769 Z" id="Fill-58" fill="#2B3047" mask="url(#mask-6)"></path>
                        <path d="M279.771395,70.0187124 C279.771395,70.0187124 297.859535,63.8662806 307.363198,81.0036521 C307.912907,81.9990044 308.518488,82.9564902 309.253837,83.8274235 C311.18593,86.1066362 315.206919,90.3062298 319.644244,91.6676267 C337.247558,97.071741 348.38593,130.37277 313.348721,133.335385 C269.501744,137.044516 257.051279,128.392884 263.323372,110.905697 C267.796744,98.4331378 263.802791,89.5813537 263.802791,89.5813537 L279.771395,70.0187124 Z" id="Fill-59" fill="#21283A" mask="url(#mask-6)"></path>
                        <path d="M294.211087,114.711477 L284.853413,118.878613 C279.27882,121.357978 275.703006,126.906347 275.775099,133.00829 C275.921087,145.302334 278.707483,175.826474 289.088878,187.509242 L320.73411,187.509242 C325.632831,165.880163 322.808587,132.644048 322.808587,132.644048 C323.125797,124.495502 317.136669,117.468531 309.042424,116.494817 L294.211087,114.711477 Z" id="Fill-60" fill="#4CABF6" mask="url(#mask-6)"></path>
                        <path d="M295.082331,124.791764 C291.785878,125.174037 288.794017,122.833516 288.372273,119.539116 L285.798552,99.419294 L297.834483,98.0182273 L300.391983,118.001008 C300.820936,121.349503 298.431052,124.402278 295.082331,124.791764" id="Fill-61" fill="#ECB38C" mask="url(#mask-6)"></path>
                        <path d="M285.143227,114.43505 L284.662006,114.498161 C276.639855,115.544003 269.289971,109.885641 268.24282,101.85971 L265.957471,84.3274438 L295.490378,80.4758629 L297.775727,98.0081295 C298.821076,106.03406 293.165378,113.387406 285.143227,114.43505" id="Fill-62" fill="#F1BD9A" mask="url(#mask-6)"></path>
                        <path d="M298.732762,91.2738133 L296.214913,96.4994133 C296.214913,96.4994133 292.858983,99.407934 291.909157,92.0996673 C291.103517,85.9093689 286.61032,86.984061 286.61032,86.984061 C286.61032,86.984061 271.222064,98.6307657 262.183401,90.6390959 C255.049797,84.3315911 266.579273,72.7876673 279.770494,70.0179911 L297.076424,77.5823086 L298.732762,91.2738133 Z" id="Fill-63" fill="#21283A" mask="url(#mask-6)"></path>
                        <path d="M294.469901,96.7114667 C294.79432,99.3909841 297.227459,101.298743 299.905715,100.975975 C302.583971,100.651403 304.492634,98.2171175 304.168215,95.5376 C303.843797,92.8580825 301.410657,90.9503238 298.732401,91.2730921 C296.054145,91.5976635 294.145483,94.0319492 294.469901,96.7114667" id="Fill-64" fill="#F1BD9A" mask="url(#mask-6)"></path>
                        <path d="M298.446012,98.4098768 C298.503686,98.8931276 298.941651,99.2357308 299.424674,99.1780292 C299.907698,99.1203276 300.25014,98.680353 300.192465,98.1971022 C300.134791,97.7156546 299.695023,97.3712483 299.213802,97.430753 C298.730779,97.4884546 298.388337,97.926626 298.446012,98.4098768" id="Fill-65" fill="#FFFFFF" mask="url(#mask-6)"></path>
                        <path d="M273.487948,105.946606 L281.776843,104.181298 C281.776843,104.181298 282.175157,107.784041 277.636901,108.434987 C274.053878,108.948891 273.487948,105.946606 273.487948,105.946606" id="Fill-66" fill="#FFFFFF" mask="url(#mask-6)"></path>
                        <path d="M320.73393,187.508521 L289.088698,187.508521 L238.466779,218.110197 C232.499279,221.718349 230.132826,229.196114 232.942651,235.582959 L271.802593,323.936711 L283.036488,322.614984 L262.15114,237.355479 C279.680558,236.612571 312.226953,233.965511 320.73393,224.480813 C335.1255,208.432559 320.73393,187.508521 320.73393,187.508521" id="Fill-67" fill="#393F5C" mask="url(#mask-6)"></path>
                        <path d="M212.816081,132.067032 L230.871779,180.612099 L172.191663,180.612099 L155.487709,134.883591 C154.988465,133.516785 156.003174,132.067032 157.457651,132.067032 L212.816081,132.067032 Z" id="Fill-68" fill="#4CABF6" mask="url(#mask-6)"></path>
                        <path d="M212.816081,132.067032 L215.625907,132.067032 C217.134453,132.067032 218.482593,133.00829 219.005267,134.423782 L236.028233,180.612099 L230.871779,180.612099 L212.816081,132.067032 Z" id="Fill-69" fill="#3388CB" mask="url(#mask-6)"></path>
                        <path d="M176.590058,185.289714 L230.870698,185.289714 L230.870698,180.612279 L172.352791,180.612279 L172.352791,181.050451 C172.352791,183.390971 174.25064,185.289714 176.590058,185.289714" id="Fill-70" fill="#3388CB" mask="url(#mask-6)"></path>
                        <path d="M230.871058,185.289714 L267.083384,185.289714 C268.373849,185.289714 269.421,184.24207 269.421,182.950997 C269.421,181.658121 268.373849,180.612279 267.083384,180.612279 L230.871058,180.612279 L230.871058,185.289714 Z" id="Fill-71" fill="#3388CB" mask="url(#mask-6)"></path>
                        <path d="M198.115953,156.197656 C199.226186,159.549757 197.887058,163.011853 195.125895,163.926062 C192.36293,164.842075 189.223279,162.863992 188.113047,159.510088 C187.002814,156.157986 188.341942,152.695891 191.104907,151.781681 C193.867872,150.865669 197.007523,152.843751 198.115953,156.197656" id="Fill-72" fill="#EAF2F5" mask="url(#mask-6)"></path>
                        <path d="M315.538186,142.665011 L301.945047,176.813531 L301.64586,177.567258 C300.840221,179.592223 298.882895,180.821989 296.828244,180.812973 L258.186384,180.560528 C256.609349,180.549709 255.340512,179.262243 255.349523,177.684465 C255.358535,176.254547 256.4165,175.080681 257.78807,174.876922 L296.011791,169.216757 L290.894988,173.214395 L300.003942,137.6035 C301.124988,133.221785 305.583942,130.580135 309.963593,131.699906 C314.343244,132.823284 316.985453,137.284338 315.864407,141.664249 C315.779698,141.99423 315.658942,142.356668 315.538186,142.665011" id="Fill-73" fill="#F1BD9A" mask="url(#mask-6)"></path>
                        <path d="M262.378233,174.167733 L249.185209,173.890044 C245.923,173.890044 243.278988,176.89233 243.278988,180.592444 L262.547651,180.592444 L262.378233,174.167733 Z" id="Fill-74" fill="#F1BD9A" mask="url(#mask-6)"></path>
                        <path d="M294.091413,146.885161 L315.216471,152.143218 L318.682343,132.953834 C319.614145,127.798557 316.092401,122.895726 310.910715,122.132983 C306.55089,121.491053 302.342459,124.011891 300.846529,128.159192 L294.091413,146.885161 Z" id="Fill-75" fill="#3388CB" mask="url(#mask-6)"></path>
                        <path d="M268.388988,325.993773 L263.459628,330.862344 L252.382535,333.55809 C251.241663,333.837582 250.318872,334.672452 249.92957,335.783208 L249.367244,337.38623 C249.087884,338.183233 249.68986,339.014497 250.533349,338.996465 L286.185151,338.129138 C287.347651,338.105697 288.247012,337.108541 288.151488,335.950903 L285.341663,325.847716 L279.954512,327.136985 C278.152186,327.735639 276.180442,327.531881 274.540326,326.574395 L272.624453,325.45823 C271.252884,324.659423 269.517244,324.879411 268.388988,325.993773" id="Fill-76" fill="#202E3B" mask="url(#mask-6)"></path>
                        <path d="M217.218081,318.985194 L212.288721,323.853765 L201.211628,326.549511 C200.070756,326.829003 199.149767,327.663873 198.758663,328.774629 L198.196337,330.377651 C197.916977,331.174654 198.518953,332.005917 199.362442,331.987886 L231.633081,331.308089 C232.793779,331.282844 233.694942,330.285689 233.599419,329.128051 L232.761337,318.804876 L228.783605,320.128406 C226.981279,320.72706 225.009535,320.523302 223.369419,319.565816 L221.453547,318.449651 C220.081977,317.650844 218.346337,317.870832 217.218081,318.985194" id="Fill-77" fill="#202E3B" mask="url(#mask-6)"></path>
                        <path d="M368.215657,109.941178 L458.795134,109.941178 C461.868099,109.941178 464.358913,107.450994 464.358913,104.376582 L464.358913,78.675934 C464.358913,75.6033244 461.868099,73.1113371 458.795134,73.1113371 L368.215657,73.1113371 C365.144494,73.1113371 362.65368,75.6033244 362.65368,78.675934 L362.65368,104.376582 C362.65368,107.450994 365.144494,109.941178 368.215657,109.941178" id="Fill-78" fill="#FD604E" mask="url(#mask-6)"></path>
                        <path d="M432.79136,102.094484 L451.531942,102.094484 C452.503395,102.094484 453.287407,101.3083 453.287407,100.338192 L453.287407,82.7139632 C453.287407,81.7420521 452.503395,80.9576711 451.531942,80.9576711 L432.79136,80.9576711 C431.821709,80.9576711 431.035895,81.7420521 431.035895,82.7139632 L431.035895,100.338192 C431.035895,101.3083 431.821709,102.094484 432.79136,102.094484" id="Fill-79" fill="#FFFFFF" mask="url(#mask-6)"></path>
                        <path d="M375.238419,85.3826616 L423.629058,85.3826616 C424.463535,85.3826616 425.143012,84.7046679 425.143012,83.8679949 C425.143012,83.0313219 424.463535,82.3515251 423.629058,82.3515251 L375.238419,82.3515251 C374.40214,82.3515251 373.724465,83.0313219 373.724465,83.8679949 C373.724465,84.7046679 374.40214,85.3826616 375.238419,85.3826616" id="Fill-80" fill="#FFFFFF" mask="url(#mask-6)"></path>
                        <path d="M406.736762,93.0416457 L423.628157,93.0416457 C424.464436,93.0416457 425.143913,92.3636521 425.143913,91.526979 L425.143913,91.5251759 C425.143913,90.6885029 424.464436,90.0105092 423.628157,90.0105092 L406.736762,90.0105092 C405.900483,90.0105092 405.222808,90.6885029 405.222808,91.5251759 L405.222808,91.526979 C405.222808,92.3636521 405.900483,93.0416457 406.736762,93.0416457" id="Fill-81" fill="#FFFFFF" mask="url(#mask-6)"></path>
                        <path d="M375.238419,93.0416457 L395.429872,93.0416457 C396.266151,93.0416457 396.943826,92.3636521 396.943826,91.526979 L396.943826,91.5251759 C396.943826,90.6885029 396.266151,90.0105092 395.429872,90.0105092 L375.238419,90.0105092 C374.40214,90.0105092 373.724465,90.6885029 373.724465,91.5251759 L373.724465,91.526979 C373.724465,92.3636521 374.40214,93.0416457 375.238419,93.0416457" id="Fill-82" fill="#FFFFFF" mask="url(#mask-6)"></path>
                        <path d="M387.35311,100.699909 L423.628517,100.699909 C424.464797,100.699909 425.144273,100.021915 425.144273,99.1852419 C425.144273,98.3485689 424.464797,97.6687721 423.628517,97.6687721 L387.35311,97.6687721 C386.516831,97.6687721 385.839157,98.3485689 385.839157,99.1852419 C385.839157,100.021915 386.516831,100.699909 387.35311,100.699909" id="Fill-83" fill="#FFFFFF" mask="url(#mask-6)"></path>
                        <path d="M142.715529,170.577252 C142.715529,170.577252 157.645994,170.629544 154.54239,155.255677 C154.54239,155.255677 138.88018,156.806408 142.715529,170.577252" id="Fill-84" fill="#7ED321" mask="url(#mask-6)"></path>
                        <path d="M140.844535,169.753201 C140.844535,169.753201 125.72843,169.805493 128.869884,154.24049 C128.869884,154.24049 144.726744,155.811055 140.844535,169.753201" id="Fill-85" fill="#7ED321" mask="url(#mask-6)"></path>
                        <path d="M141.53807,169.806034 C141.53807,169.806034 130.531267,158.709298 143.513419,148.927076 C143.513419,148.927076 153.943477,161.832396 141.53807,169.806034" id="Fill-86" fill="#7ED321" mask="url(#mask-6)"></path>
                        <polygon id="Fill-87" fill="#525256" mask="url(#mask-6)" points="153.615634 168.504683 129.462669 168.504683 133.307029 185.28142 149.461273 185.28142"></polygon>
                        <path d="M201.611384,188.344833 L201.611384,306.678166" id="Stroke-88" stroke="#393F5C" stroke-width="3.6" mask="url(#mask-6)"></path>
                    </g>
                </g>
            </g>
        </g>
    </g>
</svg>